<svg width="1024" height="1024" xmlns="http://www.w3.org/2000/svg">

 <g>
  <title>background</title>
  <rect fill="#32cd32" id="canvas_background" height="1026" width="1026" y="-1" x="-1"/>
 </g>
 <g>
  <title>Layer 1</title>
  <path id="svg_1" d="m0,512l0,512l1024,0l0,-1024l-1024,0l0,512zm401.1,-295c13.3,1.3 20.2,4 26.4,10.4c7.3,7.5 10.7,13 49.4,79.7l35.1,60.6l-0.2,69.8l-0.3,69.7l-48.7,-83.9c-26.8,-46.2 -49,-84.7 -49.4,-85.6c-0.3,-0.9 -1,-1.7 -1.5,-1.7s-0.8,88.8 -0.7,214.7l0.3,214.8l41,0.6c39.1,0.6 45.7,1.1 55.6,4.1l3.9,1.1l-0.2,32.1l-0.3,32.1l-4.9,1.2c-11.2,2.8 -29.3,3.3 -113.6,3.3c-95.3,0 -94.5,0 -103.9,-6.2c-9.4,-6.1 -13.6,-16.2 -13.5,-32.3c0,-11.8 1.9,-18.3 6.9,-24.2c5.8,-6.8 16.7,-9.7 40.8,-10.9l14.7,-0.7l-0.2,-237.1l-0.3,-237.1l-23.5,-0.6c-33.8,-0.9 -47.4,-4.3 -56.4,-13.9c-5.4,-5.8 -7.8,-13 -7.8,-23.5c0.1,-19.9 8.9,-29.5 31.1,-34c14,-2.9 98.6,-4.6 120.2,-2.5zm334.9,1.7c8,3.3 12.4,7.4 16.2,15.1c3.2,6.5 3.3,7 3.3,19.7c0,12.9 0,13.1 -3.5,20c-6.1,12.3 -15.6,16.3 -40.5,17.4l-14,0.6l-0.5,270.5c-0.4,220.7 -0.7,271.1 -1.8,273.5c-4.7,10.6 -13.8,13 -45.9,12.3c-22.7,-0.5 -23.9,-0.9 -30.1,-8.7c-5.7,-7.2 -11.6,-17 -61.6,-103.3l-45.6,-78.8l0.2,-69.6l0.3,-69.6l53.9,93.1c29.6,51.2 54.5,93.9 55.2,94.8c1.1,1.5 1.3,-31.7 1.4,-206.5l0,-208.2l-35.9,0c-45.2,0 -52.6,-1.1 -64.3,-9.7c-3.4,-2.5 -5.6,-5.2 -7.9,-9.8c-3.1,-6.3 -3.1,-6.4 -2.7,-20.2c0.3,-13.1 0.4,-14.1 3.3,-19.2c5,-9.2 15,-13.5 34.5,-15.1c4.7,-0.4 47.2,-0.7 94.5,-0.6l86,0.1l5.5,2.2z"/>
 </g>
</svg>