<svg version="1" xmlns="http://www.w3.org/2000/svg" width="1365.333" height="1365.333" viewBox="0 0 1024.000000 1024.000000"><path d="M0 512v512h1024V0H0v512zm401.1-295c13.3 1.3 20.2 4 26.4 10.4 7.3 7.5 10.7 13 49.4 79.7l35.1 60.6-.2 69.8-.3 69.7-48.7-83.9c-26.8-46.2-49-84.7-49.4-85.6-.3-.9-1-1.7-1.5-1.7s-.8 88.8-.7 214.7l.3 214.8 41 .6c39.1.6 45.7 1.1 55.6 4.1l3.9 1.1-.2 32.1-.3 32.1-4.9 1.2c-11.2 2.8-29.3 3.3-113.6 3.3-95.3 0-94.5 0-103.9-6.2-9.4-6.1-13.6-16.2-13.5-32.3 0-11.8 1.9-18.3 6.9-24.2 5.8-6.8 16.7-9.7 40.8-10.9l14.7-.7-.2-237.1-.3-237.1-23.5-.6c-33.8-.9-47.4-4.3-56.4-13.9-5.4-5.8-7.8-13-7.8-23.5.1-19.9 8.9-29.5 31.1-34 14-2.9 98.6-4.6 120.2-2.5zm334.9 1.7c8 3.3 12.4 7.4 16.2 15.1 3.2 6.5 3.3 7 3.3 19.7 0 12.9 0 13.1-3.5 20-6.1 12.3-15.6 16.3-40.5 17.4l-14 .6L697 562c-.4 220.7-.7 271.1-1.8 273.5-4.7 10.6-13.8 13-45.9 12.3-22.7-.5-23.9-.9-30.1-8.7-5.7-7.2-11.6-17-61.6-103.3L512 657l.2-69.6.3-69.6 53.9 93.1c29.6 51.2 54.5 93.9 55.2 94.8 1.1 1.5 1.3-31.7 1.4-206.5V291h-35.9c-45.2 0-52.6-1.1-64.3-9.7-3.4-2.5-5.6-5.2-7.9-9.8-3.1-6.3-3.1-6.4-2.7-20.2.3-13.1.4-14.1 3.3-19.2 5-9.2 15-13.5 34.5-15.1 4.7-.4 47.2-.7 94.5-.6l86 .1 5.5 2.2z"/></svg>