<?xml version="1.0" standalone="no"?>
<!DOCTYPE svg PUBLIC "-//W3C//DTD SVG 20010904//EN"
 "http://www.w3.org/TR/2001/REC-SVG-20010904/DTD/svg10.dtd">
<svg version="1.0" xmlns="http://www.w3.org/2000/svg"
 width="700.000000pt" height="700.000000pt" viewBox="0 0 700.000000 700.000000"
 preserveAspectRatio="xMidYMid meet">
<metadata>
Created by potrace 1.11, written by Peter Selinger 2001-2013
</metadata>
<g transform="translate(0.000000,700.000000) scale(0.100000,-0.100000)"
fill="#000000" stroke="none">
<path d="M0 3500 l0 -3500 3500 0 3500 0 0 3500 0 3500 -3500 0 -3500 0 0
-3500z m2835 2001 c88 -28 125 -82 509 -745 l156 -270 -2 -475 -3 -475 -266
460 c-147 252 -297 512 -334 576 -37 65 -71 115 -76 112 -5 -3 -9 -636 -9
-1460 l0 -1454 28 -1 c336 -8 586 -20 620 -29 l42 -12 0 -219 0 -218 -37 -12
c-52 -17 -1314 -25 -1399 -10 -72 14 -120 50 -153 115 -33 65 -35 203 -4 262
39 77 102 102 282 112 l116 7 3 1621 2 1621 -162 6 c-257 9 -351 37 -405 119
-23 34 -29 55 -32 119 -7 173 76 242 314 259 174 12 762 6 810 -9z m2222 -11
c78 -45 103 -99 103 -225 0 -110 -17 -157 -72 -198 -45 -34 -95 -47 -214 -54
l-101 -6 -6 -1200 c-4 -660 -7 -1489 -8 -1841 0 -684 -1 -692 -49 -728 -38
-28 -192 -42 -326 -30 -105 9 -108 10 -140 44 -36 39 -146 224 -503 840 l-241
417 0 473 c0 284 4 468 9 462 5 -5 155 -261 334 -569 178 -308 342 -591 364
-628 l40 -68 6 98 c4 54 7 691 7 1416 l0 1317 -217 0 c-357 0 -451 21 -511
115 -29 44 -40 144 -27 230 12 81 83 138 193 154 31 5 338 9 682 10 l625 1 52
-30z"/>
</g>
</svg>
