<svg xmlns="http://www.w3.org/2000/svg" width="1024" height="1024" version="1.1" viewBox="0 0 768.00001 768.00292">
 <g id="radarr-group-logo" transform="translate(5e-6 .26738)">
  <g id="radarr-group-details" transform="matrix(.74963 0 0 .74963 -.85254 -.00025565)" fill-rule="evenodd" style="">
   <path id="radarr-stick-2" d="m838.44 786.8-34.102 36.566-214.52-200.04 34.102-36.57zm-82.996-77.395-11.031 11.832-131.52-122.65 11.031-11.832zm-23.066 24.738-11.031 11.832-131.53-122.65 11.035-11.832z" fill="limegreen"/>
   <path id="radarr-stick-1" d="m189.05 236.93 34.102-36.57 214.52 200.04-34.102 36.566zm82.996 77.391 11.031-11.828 131.52 122.65-11.031 11.828zm23.066-24.734 11.031-11.832 131.53 122.65-11.035 11.832z" fill="limegreen"/>
   <path id="radarr-yellow-circle" d="m648.51 512.26c0 74.625-60.492 135.12-135.12 135.12-74.621 0-135.12-60.492-135.12-135.12 0-74.621 60.496-135.12 135.12-135.12 74.625 0 135.12 60.496 135.12 135.12z" fill="limegreen"/>
  </g>
  <path id="radarr-outer-ring" d="m384-0.26592a384 384 0 0 0 -384 384 384 384 0 0 0 384 384 384 384 0 0 0 384 -384 384 384 0 0 0 -384 -384zm0 15a369 369 0 0 1 369 369 369 369 0 0 1 -369 369 369 369 0 0 1 -369 -369 369 369 0 0 1 369 -369z" fill="limegreen" stroke-width="1.0852"/>
 </g>
</svg>
