<svg xmlns="http://www.w3.org/2000/svg" width="1024" height="1024" version="1.1" viewBox="0 0 768.00001 768.00292">
 <g id="radarr-group-logo" transform="translate(5e-6 .26738)">
  <circle id="radarr-black-circle" cx="384" cy="384" r="375" stroke-width="1.8453" style="&#10;    fill: #514c3a;&#10;"/>
  <g id="radarr-group-details" transform="matrix(.74963 0 0 .74963 -.85254 -.00025565)" fill-rule="evenodd">
   <g id="radarr-group-shapes-l-r" transform="translate(-5.0026)" fill="black">
    <path id="radarr-shape-right" d="m818.96 812.82c76.922-76.922 124.5-183.19 124.5-300.57s-47.578-223.65-124.5-300.57l-300.57 300.57z"/>
    <path id="radarr-shape-left" d="m217.82 211.68c-76.922 76.922-124.5 183.19-124.5 300.57s47.578 223.64 124.5 300.57l300.57-300.57z"/>
   </g>
   <g id="radarr-group-shapes-t-b" fill="black">
    <path id="radarr-shape-bottom" d="m817.28 922.46c-85.035 62.871-190.22 100.05-304.09 100.05-113.7 0-218.74-37.059-303.7-99.758l196.29-201.4c32.191 16.406 68.637 25.656 107.24 25.656 38.875 0 75.562-9.3828 107.92-26.004z"/>
    <path id="radarr-shape-top" d="m817.28 102.05c-85.035-62.875-190.22-100.05-304.09-100.05-113.7 0-218.74 37.059-303.7 99.758l196.29 201.4c32.191-16.406 68.637-25.656 107.24-25.656 38.875 0 75.562 9.3828 107.92 26.004z"/>
   </g>
   <path id="radarr-stick-2" d="m838.44 786.8-34.102 36.566-214.52-200.04 34.102-36.57zm-82.996-77.395-11.031 11.832-131.52-122.65 11.031-11.832zm-23.066 24.738-11.031 11.832-131.53-122.65 11.035-11.832z" fill="#ffc230"/>
   <path id="radarr-stick-1" d="m189.05 236.93 34.102-36.57 214.52 200.04-34.102 36.566zm82.996 77.391 11.031-11.828 131.52 122.65-11.031 11.828zm23.066-24.734 11.031-11.832 131.53 122.65-11.035 11.832z" fill="#ffc230"/>
   <path id="radarr-yellow-circle" d="m648.51 512.26c0 74.625-60.492 135.12-135.12 135.12-74.621 0-135.12-60.492-135.12-135.12 0-74.621 60.496-135.12 135.12-135.12 74.625 0 135.12 60.496 135.12 135.12z" fill="#ffc230"/>
  </g>
  <path id="radarr-outer-ring" d="m384-0.26592a384 384 0 0 0 -384 384 384 384 0 0 0 384 384 384 384 0 0 0 384 -384 384 384 0 0 0 -384 -384zm0 15a369 369 0 0 1 369 369 369 369 0 0 1 -369 369 369 369 0 0 1 -369 -369 369 369 0 0 1 369 -369z" fill="#ffc230" stroke-width="1.0852"/>
 </g>
</svg>
