<?xml version="1.0" standalone="no"?><!DOCTYPE svg PUBLIC "-//W3C//DTD SVG 1.1//EN" "http://www.w3.org/Graphics/SVG/1.1/DTD/svg11.dtd"><svg width="100%" height="100%" viewBox="0 0 617 617" version="1.1" xmlns="http://www.w3.org/2000/svg" xmlns:xlink="http://www.w3.org/1999/xlink" xml:space="preserve" style="fill-rule:evenodd;clip-rule:evenodd;stroke-linejoin:round;stroke-miterlimit:1.41421;"><g id="Arrow (Amber)"><path id="Outer Wings" d="M126.351,28.316l363.601,0l0,266.144l97.892,0l-279.693,293.677l-279.692,-293.677l97.892,0l0,-266.144Z" style="fill:none;stroke-width:55px;stroke:#000;"/><path d="M126.351,28.316l363.601,0l0,266.144l97.892,0l-279.693,293.677l-279.692,-293.677l97.892,0l0,-266.144Z" style="fill:#ffb300;"/><path id="Inner Triangle" d="M308.676,588.137l-181.39,-559.821l362.781,0l-181.391,559.821Z" style="fill:#ffca28;"/></g><g transform="matrix(0.789539,0,0,0.789539,-800.431,-229.294)"><path d="M1273.64,961.528l-189.6,0l0,-39.9l112.5,0l0,-35.4l-112.5,0l0,-114.6l189.6,0l0,39.6l-112.5,0l0,35.4l112.5,0l0,114.9Z" style="fill:none;stroke-width:63.33px;stroke-linecap:round;stroke:#000;"/><path d="M1386.14,921.628l35.4,0l0,-35.4l-35.4,0l0,35.4ZM1498.64,961.528l-189.6,0l0,-114.9l112.5,0l0,-35.4l-112.5,0l0,-39.6l189.6,0l0,189.9Z" style="fill:none;stroke-width:63.33px;stroke-linecap:round;stroke:#000;"/><path d="M1611.14,921.628l35.4,0l0,-110.4l-35.4,0l0,110.4ZM1534.04,961.528l0,-264.9l77.1,0l0,75l112.5,0l0,189.9l-189.6,0Z" style="fill:none;stroke-width:63.33px;stroke-linecap:round;stroke:#000;"/><path d="M1273.64,961.528l-189.6,0l0,-39.9l112.5,0l0,-35.4l-112.5,0l0,-114.6l189.6,0l0,39.6l-112.5,0l0,35.4l112.5,0l0,114.9Z" style="fill:#fff;fill-rule:nonzero;"/><path d="M1386.14,921.628l35.4,0l0,-35.4l-35.4,0l0,35.4ZM1498.64,961.528l-189.6,0l0,-114.9l112.5,0l0,-35.4l-112.5,0l0,-39.6l189.6,0l0,189.9Z" style="fill:#fff;fill-rule:nonzero;"/><path d="M1611.14,921.628l35.4,0l0,-110.4l-35.4,0l0,110.4ZM1534.04,961.528l0,-264.9l77.1,0l0,75l112.5,0l0,189.9l-189.6,0Z" style="fill:#fff;fill-rule:nonzero;"/></g></svg>