<svg xmlns="http://www.w3.org/2000/svg" height="216.9" viewBox="0 0 216.7 216.9" width="216.7">
<circle xmlns="http://www.w3.org/2000/svg" id="radarr-black-circle" cx="108.35" cy="108.45" r="106.35" stroke-width="1.8453" style="stroke:limegreen;stroke-width:4px;fill:none;"/>
  <g clip-rule="evenodd">
    <path d="M78.7 114c-.2-1.167-.332-2.35-.4-3.55-.032-.667-.05-1.333-.05-2 0-.7.018-1.367.05-2 0-.067.018-.133.05-.2.435-7.367 3.334-13.733 8.7-19.1 5.9-5.833 12.984-8.75 21.25-8.75 8.3 0 15.384 2.917 21.25 8.75 5.834 5.934 8.75 13.033 8.75 21.3 0 8.267-2.916 15.35-8.75 21.25-.2.233-.416.45-.65.65-.966.933-1.982 1.783-3.05 2.55-5.065 3.733-10.916 5.6-17.55 5.6s-12.466-1.866-17.5-5.6c-1.332-.934-2.582-2-3.75-3.2-4.532-4.5-7.316-9.734-8.35-15.7z" fill="limegreen" fill-rule="evenodd"/>
    <path d="M157.8 59.75l-15 14.65M30.785 32.526L71.65 73.25m84.6 84.25l27.808 28.78m1.855-153.894L157.8 59.75m-125.45 126l27.35-27.4" fill="none" stroke="limegreen" stroke-miterlimit="1" stroke-width="2"/>
    <path d="M157.8 59.75l-16.95 17.2M58.97 60.604l17.2 17.15M59.623 158.43l16.75-17.4m61.928-1.396l18.028 17.945" fill="none" stroke="limegreen" stroke-miterlimit="1" stroke-width="7"/>
  </g>
</svg>
