<svg version="1.1" id="Layer_1" xmlns="http://www.w3.org/2000/svg" xmlns:xlink="http://www.w3.org/1999/xlink" x="0px" y="0px"
	 width="100%" viewBox="0 0 448 448" enable-background="new 0 0 448 448" xml:space="preserve">
<path fill="#FFFFFF" opacity="1.000000" stroke="none"
	d="
M323.263733,299.833801
	C336.911530,299.947540 349.950531,297.974060 363.068878,297.216309
	C366.318420,297.028595 369.233887,297.200745 370.719788,300.432343
	C372.375488,304.033173 369.620575,305.894623 367.270233,307.803711
	C347.698242,323.700836 326.506897,337.062775 303.939789,348.272675
	C302.918182,348.780121 301.911133,349.316803 300.863342,349.857391
	C303.691406,353.353210 310.326904,353.957581 315.323120,351.476593
	C321.061218,348.627167 325.533417,344.056000 330.627106,340.336761
	C340.744263,332.949554 353.416138,332.606628 363.577362,340.025665
	C367.735229,343.061432 371.625610,346.466797 375.599457,349.750305
	C378.235382,351.928284 381.180511,353.361877 384.600494,353.658569
	C387.808228,353.936768 389.596619,355.510315 389.254883,358.822479
	C388.903625,362.227051 386.241058,363.274994 383.487000,363.054230
	C378.828644,362.680786 374.285522,361.498901 370.500732,358.476807
	C367.768524,356.295197 365.049377,354.090424 362.426239,351.780334
	C350.901611,341.630737 343.412903,341.618683 331.890137,351.981262
	C323.934082,359.136200 315.299255,364.013275 303.985229,362.442749
	C296.430786,361.394104 290.875122,357.063354 285.460297,352.379303
	C282.544434,349.856873 279.437866,347.661407 276.065552,345.873230
	C268.881439,342.063873 262.900665,345.144226 257.235229,349.471344
	C252.358734,353.195801 248.117096,357.890472 242.342407,360.257416
	C230.150635,365.254669 219.606781,361.659119 210.100693,353.485016
	C209.974579,353.376556 209.865280,353.248749 209.740814,353.138214
	C196.446960,341.328491 191.954529,341.367096 177.993164,352.666901
	C171.485519,357.933960 164.464966,362.384399 155.563629,362.348175
	C149.414597,362.323120 143.649597,360.863068 138.583130,357.415253
	C133.639587,354.051086 128.823898,350.468079 124.184929,346.694824
	C117.942436,341.617279 114.868683,341.236176 108.168236,345.653809
	C102.335632,349.499298 96.548042,353.416168 90.814789,357.408081
	C87.462616,359.742096 83.757240,361.192841 79.827507,361.972931
	C76.496353,362.634216 73.639618,361.462494 72.971542,357.885345
	C72.374588,354.688995 74.574211,353.504639 77.492561,352.502228
	C86.432648,349.431305 93.640587,343.346161 101.232224,337.974182
	C103.067329,336.675598 102.042114,334.824982 101.384636,333.424957
	C99.972382,330.417725 98.229759,327.567383 96.675728,324.624634
	C92.991501,317.648163 94.334442,314.937653 102.238754,314.120636
	C111.510361,313.162262 120.847603,313.589508 130.160110,312.804810
	C152.692810,310.906097 175.270447,309.529602 197.836548,308.042511
	C211.281387,307.156494 224.744995,306.554138 238.188705,305.653015
	C253.949539,304.596527 269.708008,303.473785 285.447937,302.147522
	C294.908478,301.350311 304.440430,302.311340 313.862823,300.739380
	C316.805481,300.248474 319.813568,300.149750 323.263733,299.833801
M123.183586,334.000549
	C129.910233,338.867126 136.566391,343.835052 143.382492,348.572906
	C150.841507,353.757629 158.400772,354.261108 166.064468,348.706055
	C168.068558,347.253387 170.198761,345.978241 172.168549,344.432739
	C178.212372,339.690613 184.433807,335.157349 192.511414,334.690826
	C202.319916,334.124359 209.520172,339.465820 216.277084,345.575043
	C226.618881,354.925568 234.602203,355.184296 245.382996,346.346130
	C247.443405,344.656952 249.452972,342.903412 251.552353,341.264587
	C262.580566,332.655457 275.191589,332.333435 286.519409,340.607483
	C289.458893,342.754547 291.972412,343.003265 295.228058,341.395905
	C306.717590,335.723480 317.964996,329.615448 328.921326,322.987183
	C335.809723,318.819855 342.576721,314.434265 349.884338,308.282349
	C268.577301,313.532837 188.731873,318.688934 108.483818,323.871033
	C109.694839,327.598999 109.610397,331.766907 114.291611,331.861450
	C117.247665,331.921204 119.833282,332.726166 123.183586,334.000549
z"/>
<path fill="#FFFFFF" opacity="1.000000" stroke="none"
	d="
M270.752014,258.325256
	C274.762177,267.784973 276.404846,277.461090 278.140411,287.085815
	C279.185547,292.881805 275.847473,295.477539 270.058258,293.374847
	C254.873642,287.859589 239.455917,283.160339 223.380280,281.294891
	C203.107910,278.942413 182.938324,278.920746 163.096298,285.029694
	C149.686417,289.158295 136.862213,294.441040 124.922821,301.827057
	C122.183258,303.521820 119.095787,304.484131 116.709961,301.853546
	C114.438217,299.348755 115.739822,296.520538 117.749481,294.232117
	C133.681259,276.090271 141.256729,254.157852 145.196884,230.976791
	C148.875961,209.331696 148.218903,187.693359 142.043350,166.293961
	C136.529999,147.189178 129.135544,128.963577 119.646721,111.524467
	C117.909737,108.332146 114.584587,104.780411 118.088890,101.095428
	C121.552055,97.453712 125.519829,100.462753 128.656097,102.016144
	C142.813293,109.028160 156.587234,116.766884 169.467514,125.972969
	C183.284363,135.848480 196.329224,146.650513 208.269196,158.756683
	C222.920929,173.612366 235.709915,189.915558 246.664658,207.681839
	C256.469025,223.582443 264.882294,240.125092 270.752014,258.325256
M176.099060,143.395447
	C162.746536,133.341629 149.156342,123.661392 132.907684,115.635727
	C161.418259,171.334259 166.651596,226.703979 137.694748,283.938416
	C180.731720,263.876801 223.528534,267.154541 267.364563,281.693878
	C264.139038,270.449615 261.548370,260.740479 257.763885,251.319305
	C250.409210,233.010437 240.906738,215.917053 229.665375,199.772598
	C214.827347,178.462692 196.895935,160.048401 176.099060,143.395447
z"/>
<path fill="#FFFFFF" opacity="1.000000" stroke="none"
	d="
M210.528259,146.521347
	C207.812225,144.553497 205.348373,142.848587 202.939178,141.069656
	C200.792892,139.484848 199.348145,137.528885 200.347092,134.675629
	C201.296478,131.963928 203.535965,131.585571 206.022278,131.663177
	C212.226257,131.856827 217.550629,134.793564 222.832504,137.465240
	C237.208511,144.736923 249.573883,154.935257 261.239075,165.834793
	C275.799438,179.439499 289.892273,193.565567 301.279968,210.086182
	C313.583496,227.935394 323.849426,246.894150 332.133362,266.922363
	C334.544525,272.751923 336.880402,278.615479 339.097595,284.520966
	C340.032776,287.011871 340.863892,289.735168 338.486725,291.970917
	C336.122467,294.194519 333.620483,293.147400 331.049286,292.156403
	C323.023987,289.063416 315.224792,284.920410 306.134399,286.357330
	C305.482391,286.460419 304.776489,286.279602 304.142120,286.428650
	C292.496765,289.164978 293.534912,285.694122 290.561340,276.221252
	C285.231262,259.241302 278.793182,242.669876 271.163391,226.573212
	C263.533142,210.475632 255.052185,194.839355 244.503418,180.470428
	C235.019943,167.552612 223.699402,156.330612 210.528259,146.521347
M310.637939,244.770111
	C296.129242,215.960281 275.788727,191.897232 251.177216,171.287231
	C251.837585,173.248993 252.792419,174.985092 253.932693,176.589386
	C264.082703,190.869644 272.489441,206.145538 279.935852,221.972260
	C287.721527,238.520020 294.447693,255.483978 299.936096,272.934174
	C300.421448,274.477325 300.547607,276.401733 302.765472,276.541626
	C310.132446,277.006348 317.623169,275.687164 325.157196,278.554871
	C321.678711,266.585541 316.494598,255.934418 310.637939,244.770111
z"/>
</svg>
